# xmcd
#
# Track frame offsets:
#	183
#	14275
#	26103
#	39085
#	50668
#	65458
#	76745
#	91275
#	105265
#	118730
#	132753
#	145988
#	154650
#	174825
#	186713
#	198388
#	209280
#
# Disc length: 2968 seconds
#
# Revision: 0
# Processed by: cddbd v1.4PL0 Copyright (c) Steve Scherf et al.
# Submitted via: EasyCDDAExtractor 5.0.5.1
#
DISCID=e00b9611
DTITLE=Bo Diddley - Signifying Blues (Charly blues Masterworks Volume 43)
DYEAR=1993
DGENRE=R&B
TTITLE0=I'm A Man (Alternate Take)
TTITLE1=Little Girl (alternate take)
TTITLE2=You Don't Love Me (You Don't Care)
TTITLE3=I'm Looking For A Woman
TTITLE4=I'm Bad
TTITLE5=Who Do You Love
TTITLE6=Down Home Special
TTITLE7=Before You Accuse Me
TTITLE8=The Clock Strikes Twelve
TTITLE9=Oh Yea
TTITLE10=Blues Blues
TTITLE11=Let Me In
TTITLE12=Signifying Blues
TTITLE13=Live My Life
TTITLE14=Call Me
TTITLE15=I Want My Baby
TTITLE16=Mama Keep Your Big Mouth Shut
EXTD=
EXTT0=Chicago March 2, 1955\n
EXTT1=
EXTT2=
EXTT3=
EXTT4=
EXTT5=
EXTT6=
EXTT7=
EXTT8=
EXTT9=
EXTT10=
EXTT11=
EXTT12=
EXTT13=
EXTT14=
EXTT15=
EXTT16=
PLAYORDER=
